<?xml version="1.0" standalone="no"?>
<!DOCTYPE svg PUBLIC "-//W3C//DTD SVG 20010904//EN"
 "http://www.w3.org/TR/2001/REC-SVG-20010904/DTD/svg10.dtd">
<svg version="1.0" xmlns="http://www.w3.org/2000/svg"
 width="260.000000pt" height="260.000000pt" viewBox="0 0 260.000000 260.000000"
 preserveAspectRatio="xMidYMid meet">
<metadata>
Created by potrace 1.14, written by Peter Selinger 2001-2017
</metadata>
<g transform="translate(0.000000,260.000000) scale(0.100000,-0.100000)"
fill="#000000" stroke="none">
<path d="M1205 2100 c-104 -11 -189 -36 -290 -84 -145 -69 -193 -124 -230
-266 -50 -193 -21 -382 80 -520 61 -82 128 -124 250 -156 97 -25 107 -26 340
-21 132 3 250 1 262 -4 33 -12 125 -87 145 -118 25 -37 24 -140 -2 -190 -22
-44 -71 -71 -189 -103 -63 -17 -107 -21 -251 -22 -192 -1 -249 9 -387 64 -87
35 -126 37 -170 10 -45 -27 -66 -64 -66 -115 0 -113 118 -187 366 -231 109
-19 438 -19 527 0 149 32 385 147 443 216 43 51 48 81 39 261 -8 164 -9 167
-47 248 -26 55 -53 95 -84 124 -72 66 -152 117 -212 133 -83 22 -235 28 -367
15 -103 -11 -126 -11 -182 4 -71 18 -153 68 -200 122 -28 31 -30 40 -29 106 0
87 15 134 51 160 15 11 89 34 170 53 224 53 386 45 508 -24 90 -51 129 -64
172 -57 96 17 145 119 101 212 -17 37 -33 49 -183 134 l-95 54 -200 1 c-110 1
-231 -2 -270 -6z"/>
</g>
</svg>
